<svg id="visual" viewBox="0 0 900 600" width="900" height="600" xmlns="http://www.w3.org/2000/svg" xmlns:xlink="http://www.w3.org/1999/xlink" version="1.1"><rect x="0" y="0" width="900" height="600" fill="#001220"></rect><g fill="#1e4f5d"><circle r="16" cx="435" cy="580"></circle><circle r="3" cx="836" cy="554"></circle><circle r="9" cx="18" cy="215"></circle><circle r="9" cx="583" cy="311"></circle><circle r="8" cx="396" cy="74"></circle><circle r="3" cx="65" cy="404"></circle><circle r="14" cx="884" cy="262"></circle><circle r="12" cx="565" cy="208"></circle><circle r="10" cx="706" cy="66"></circle><circle r="12" cx="136" cy="420"></circle><circle r="12" cx="683" cy="274"></circle><circle r="9" cx="258" cy="102"></circle><circle r="11" cx="241" cy="351"></circle><circle r="13" cx="233" cy="549"></circle><circle r="10" cx="244" cy="578"></circle><circle r="12" cx="43" cy="348"></circle><circle r="11" cx="655" cy="564"></circle><circle r="9" cx="484" cy="560"></circle><circle r="7" cx="627" cy="19"></circle><circle r="6" cx="845" cy="75"></circle><circle r="9" cx="469" cy="192"></circle><circle r="4" cx="356" cy="564"></circle><circle r="11" cx="110" cy="327"></circle><circle r="2" cx="143" cy="169"></circle><circle r="6" cx="4" cy="262"></circle><circle r="7" cx="616" cy="131"></circle><circle r="4" cx="481" cy="477"></circle><circle r="8" cx="822" cy="360"></circle><circle r="6" cx="525" cy="334"></circle><circle r="11" cx="753" cy="554"></circle><circle r="13" cx="805" cy="424"></circle><circle r="10" cx="859" cy="237"></circle><circle r="10" cx="419" cy="500"></circle><circle r="3" cx="359" cy="71"></circle><circle r="12" cx="637" cy="168"></circle><circle r="5" cx="408" cy="333"></circle><circle r="10" cx="289" cy="505"></circle><circle r="10" cx="363" cy="407"></circle><circle r="5" cx="555" cy="278"></circle><circle r="8" cx="706" cy="126"></circle><circle r="4" cx="316" cy="220"></circle><circle r="13" cx="798" cy="90"></circle><circle r="10" cx="715" cy="332"></circle><circle r="3" cx="269" cy="32"></circle><circle r="6" cx="639" cy="87"></circle><circle r="12" cx="326" cy="108"></circle><circle r="3" cx="335" cy="173"></circle><circle r="11" cx="860" cy="587"></circle><circle r="8" cx="516" cy="195"></circle><circle r="11" cx="234" cy="171"></circle></g></svg>