<svg id="visual" viewBox="0 0 900 600" width="900" height="600" xmlns="http://www.w3.org/2000/svg" xmlns:xlink="http://www.w3.org/1999/xlink" version="1.1"><rect x="0" y="0" width="900" height="600" fill="#d3fcf6"></rect><g fill="none" stroke="#f2e8cc" stroke-width="2"><circle r="20" cx="131" cy="193"></circle><circle r="3" cx="603" cy="141"></circle><circle r="4" cx="306" cy="479"></circle><circle r="4" cx="868" cy="73"></circle><circle r="14" cx="550" cy="153"></circle><circle r="6" cx="236" cy="223"></circle><circle r="17" cx="263" cy="364"></circle><circle r="17" cx="326" cy="50"></circle><circle r="3" cx="891" cy="24"></circle><circle r="15" cx="603" cy="54"></circle><circle r="16" cx="247" cy="315"></circle><circle r="9" cx="863" cy="198"></circle><circle r="6" cx="363" cy="546"></circle><circle r="5" cx="639" cy="20"></circle><circle r="18" cx="605" cy="549"></circle><circle r="16" cx="368" cy="492"></circle><circle r="2" cx="760" cy="150"></circle><circle r="15" cx="447" cy="171"></circle><circle r="8" cx="145" cy="108"></circle><circle r="10" cx="898" cy="487"></circle><circle r="7" cx="818" cy="398"></circle><circle r="4" cx="790" cy="341"></circle><circle r="16" cx="877" cy="351"></circle><circle r="11" cx="35" cy="43"></circle><circle r="9" cx="703" cy="252"></circle><circle r="9" cx="508" cy="111"></circle><circle r="14" cx="717" cy="506"></circle><circle r="4" cx="194" cy="134"></circle><circle r="12" cx="629" cy="290"></circle><circle r="12" cx="91" cy="429"></circle><circle r="5" cx="396" cy="113"></circle><circle r="12" cx="612" cy="243"></circle><circle r="17" cx="886" cy="582"></circle><circle r="17" cx="11" cy="274"></circle><circle r="16" cx="294" cy="552"></circle><circle r="3" cx="643" cy="579"></circle><circle r="15" cx="713" cy="406"></circle><circle r="4" cx="567" cy="584"></circle><circle r="9" cx="152" cy="525"></circle><circle r="11" cx="669" cy="199"></circle><circle r="17" cx="439" cy="400"></circle><circle r="2" cx="672" cy="335"></circle><circle r="5" cx="794" cy="566"></circle><circle r="4" cx="96" cy="576"></circle><circle r="14" cx="6" cy="451"></circle><circle r="2" cx="756" cy="55"></circle><circle r="15" cx="748" cy="354"></circle><circle r="5" cx="697" cy="573"></circle><circle r="6" cx="463" cy="90"></circle><circle r="9" cx="56" cy="285"></circle><circle r="14" cx="477" cy="302"></circle><circle r="3" cx="211" cy="412"></circle><circle r="2" cx="152" cy="247"></circle><circle r="13" cx="315" cy="291"></circle><circle r="16" cx="263" cy="423"></circle><circle r="12" cx="768" cy="212"></circle><circle r="15" cx="248" cy="27"></circle><circle r="4" cx="562" cy="76"></circle><circle r="7" cx="524" cy="271"></circle><circle r="9" cx="289" cy="214"></circle><circle r="8" cx="22" cy="191"></circle><circle r="3" cx="235" cy="87"></circle><circle r="15" cx="14" cy="508"></circle><circle r="11" cx="469" cy="16"></circle><circle r="5" cx="468" cy="358"></circle><circle r="10" cx="601" cy="481"></circle><circle r="6" cx="502" cy="187"></circle><circle r="4" cx="67" cy="522"></circle><circle r="11" cx="331" cy="390"></circle><circle r="2" cx="319" cy="128"></circle><circle r="17" cx="174" cy="298"></circle><circle r="18" cx="255" cy="598"></circle><circle r="2" cx="792" cy="12"></circle><circle r="16" cx="766" cy="445"></circle><circle r="15" cx="822" cy="48"></circle><circle r="18" cx="423" cy="450"></circle><circle r="18" cx="679" cy="73"></circle><circle r="4" cx="660" cy="128"></circle><circle r="10" cx="786" cy="89"></circle><circle r="13" cx="138" cy="398"></circle><circle r="18" cx="397" cy="295"></circle><circle r="14" cx="667" cy="519"></circle><circle r="8" cx="362" cy="228"></circle><circle r="11" cx="339" cy="585"></circle><circle r="18" cx="372" cy="180"></circle><circle r="16" cx="864" cy="253"></circle><circle r="16" cx="376" cy="368"></circle><circle r="16" cx="569" cy="391"></circle><circle r="14" cx="161" cy="44"></circle><circle r="9" cx="681" cy="467"></circle><circle r="9" cx="863" cy="309"></circle><circle r="9" cx="438" cy="248"></circle><circle r="7" cx="128" cy="334"></circle><circle r="12" cx="396" cy="4"></circle><circle r="13" cx="181" cy="475"></circle><circle r="10" cx="3" cy="123"></circle><circle r="18" cx="653" cy="410"></circle><circle r="7" cx="798" cy="490"></circle><circle r="17" cx="187" cy="552"></circle><circle r="16" cx="15" cy="360"></circle><circle r="6" cx="546" cy="531"></circle><circle r="13" cx="762" cy="275"></circle><circle r="8" cx="495" cy="474"></circle><circle r="4" cx="524" cy="10"></circle><circle r="5" cx="550" cy="233"></circle><circle r="18" cx="448" cy="556"></circle><circle r="8" cx="8" cy="588"></circle><circle r="6" cx="815" cy="252"></circle><circle r="12" cx="816" cy="150"></circle><circle r="4" cx="390" cy="68"></circle><circle r="13" cx="105" cy="496"></circle><circle r="6" cx="369" cy="421"></circle><circle r="12" cx="870" cy="144"></circle><circle r="3" cx="150" cy="577"></circle><circle r="5" cx="657" cy="252"></circle><circle r="6" cx="104" cy="279"></circle><circle r="17" cx="888" cy="396"></circle><circle r="8" cx="501" cy="393"></circle><circle r="15" cx="552" cy="324"></circle><circle r="8" cx="846" cy="533"></circle><circle r="17" cx="351" cy="98"></circle><circle r="6" cx="705" cy="174"></circle><circle r="2" cx="499" cy="49"></circle><circle r="3" cx="232" cy="471"></circle><circle r="3" cx="60" cy="329"></circle><circle r="17" cx="259" cy="141"></circle><circle r="11" cx="590" cy="200"></circle><circle r="7" cx="692" cy="23"></circle><circle r="2" cx="76" cy="178"></circle><circle r="7" cx="611" cy="370"></circle><circle r="18" cx="42" cy="557"></circle><circle r="18" cx="96" cy="68"></circle><circle r="10" cx="718" cy="298"></circle><circle r="11" cx="51" cy="468"></circle><circle r="5" cx="58" cy="226"></circle><circle r="7" cx="107" cy="145"></circle><circle r="18" cx="177" cy="203"></circle><circle r="2" cx="523" cy="575"></circle><circle r="10" cx="177" cy="356"></circle><circle r="16" cx="824" cy="452"></circle><circle r="11" cx="817" cy="201"></circle><circle r="12" cx="38" cy="413"></circle><circle r="4" cx="113" cy="1"></circle><circle r="18" cx="437" cy="507"></circle><circle r="16" cx="349" cy="329"></circle><circle r="17" cx="89" cy="382"></circle><circle r="11" cx="404" cy="570"></circle><circle r="2" cx="226" cy="519"></circle><circle r="5" cx="747" cy="538"></circle><circle r="7" cx="288" cy="95"></circle><circle r="13" cx="330" cy="5"></circle><circle r="5" cx="732" cy="95"></circle><circle r="13" cx="267" cy="500"></circle><circle r="2" cx="419" cy="335"></circle><circle r="9" cx="565" cy="450"></circle><circle r="17" cx="233" cy="178"></circle><circle r="8" cx="623" cy="94"></circle><circle r="9" cx="595" cy="328"></circle><circle r="16" cx="195" cy="6"></circle><circle r="7" cx="409" cy="215"></circle><circle r="6" cx="581" cy="15"></circle><circle r="3" cx="311" cy="430"></circle><circle r="14" cx="198" cy="255"></circle><circle r="12" cx="41" cy="94"></circle><circle r="15" cx="140" cy="449"></circle><circle r="7" cx="752" cy="598"></circle><circle r="17" cx="327" cy="171"></circle><circle r="11" cx="817" cy="298"></circle><circle r="4" cx="478" cy="597"></circle><circle r="5" cx="868" cy="452"></circle><circle r="6" cx="639" cy="455"></circle><circle r="16" cx="773" cy="394"></circle><circle r="3" cx="483" cy="235"></circle><circle r="16" cx="276" cy="261"></circle><circle r="17" cx="152" cy="152"></circle><circle r="5" cx="839" cy="596"></circle><circle r="11" cx="219" cy="369"></circle><circle r="17" cx="429" cy="39"></circle><circle r="13" cx="898" cy="531"></circle><circle r="18" cx="492" cy="533"></circle><circle r="18" cx="4" cy="5"></circle><circle r="15" cx="740" cy="10"></circle><circle r="7" cx="472" cy="429"></circle><circle r="12" cx="306" cy="347"></circle><circle r="7" cx="575" cy="280"></circle><circle r="10" cx="631" cy="176"></circle><circle r="7" cx="193" cy="598"></circle><circle r="13" cx="835" cy="102"></circle><circle r="18" cx="523" cy="432"></circle><circle r="6" cx="53" cy="140"></circle><circle r="4" cx="356" cy="274"></circle><circle r="6" cx="833" cy="356"></circle><circle r="12" cx="606" cy="419"></circle></g></svg>